<?xml version="1.0" encoding="UTF-8"?>
<svg id="Layer_1" data-name="Layer 1" xmlns="http://www.w3.org/2000/svg" xmlns:xlink="http://www.w3.org/1999/xlink" viewBox="0 0 61.8 66.36">
  <defs>
    <style>
      .cls-1, .cls-2, .cls-3, .cls-4, .cls-5 {
        fill: none;
      }

      .cls-2 {
        stroke: #3f2137;
      }

      .cls-2, .cls-3, .cls-4, .cls-5 {
        stroke-linecap: round;
        stroke-linejoin: round;
      }

      .cls-3, .cls-4 {
        stroke-width: .75px;
      }

      .cls-3, .cls-5 {
        stroke: #ff8a8a;
      }

      .cls-4 {
        stroke: #ffa196;
      }

      .cls-6 {
        clip-path: url(#clippath);
      }

      .cls-7 {
        fill: #ffa196;
      }

      .cls-8, .cls-9 {
        fill: #3f2137;
      }

      .cls-10 {
        clip-path: url(#clippath-1);
      }

      .cls-5 {
        stroke-width: .5px;
      }

      .cls-9, .cls-11, .cls-12, .cls-13 {
        fill-rule: evenodd;
      }

      .cls-11 {
        fill: #4361ee;
      }

      .cls-12 {
        fill: #a4b8ff;
      }

      .cls-13 {
        fill: #ffb8a1;
      }
    </style>
    <clipPath id="clippath">
      <path class="cls-1" d="M53.46,52.02c-5.83,6.26-14,9.82-22.56,9.81-1.28,0-2.56-.08-3.83-.24-3.9-.56-7.67-1.79-11.15-3.64-2.94-1.64-5.59-3.74-7.85-6.22l1.28-3.1,13.91-6.21c.62,3.72,7.81,8.17,7.81,8.17,0,0,7.21-3.41,8.09-8.21l12.78,6.28,1.53,3.37Z"/>
    </clipPath>
    <clipPath id="clippath-1">
      <polygon class="cls-1" points="14.11 46.5 20.93 43.45 31.14 57.43 41.46 43.49 47.41 46.33 47.41 66.36 14.11 66.36 14.11 46.5"/>
    </clipPath>
  </defs>
  <g>
    <path class="cls-13" d="M23.25,38.68l15.91,.12v12.92l-15.91-.12v-12.92Z"/>
    <path class="cls-9" d="M39.17,38.78v3.58c0,.4-.04,.79-.1,1.18-.08,.48-.21,.95-.4,1.4-5.37,4.16-13.94,.75-15.31-6.36l15.8,.2Z"/>
    <path class="cls-13" d="M31.13,8.43c21.28,0,12.99,35.27,0,35.27-12.27,0-21.28-35.27,0-35.27Z"/>
    <path class="cls-13" d="M18.36,24.05c-3.07,1.34-.46,7.69,1.47,7.66-.8-2.48-1.3-5.06-1.47-7.66h0Zm25.77,0c3.07,1.34,.47,7.69-1.47,7.66,.8-2.48,1.29-5.05,1.47-7.66Z"/>
    <path class="cls-9" d="M44.12,24.17s7.96-11.78-2.64-16.33c-2.72-4.33-7.9-6.43-12.87-5.22-5.84,1.19-8.01,4.08-8.01,4.08,0,0-5.53,5.01-10.44,5.12,1.83,1.29,4.05,1.91,6.28,1.76-.67,1.68-1.97,7.21,1.99,10.85,4.37-2.87,8.01-8.48,8.01-8.48,0,0,.98,3.26,.21,4.86,2.88-.55,5.59-1.76,7.92-3.53,2.54-2.04,3.89-4.3,5.31-4.33,3.26-.07,4.21,9.74,4.24,11.22h0Z"/>
    <path class="cls-11" d="M53.46,52.02c-5.83,6.26-14,9.82-22.56,9.81-1.28,0-2.56-.08-3.83-.24-3.9-.56-7.67-1.79-11.15-3.64-2.94-1.64-5.59-3.74-7.85-6.22l1.28-3.1,13.91-6.21c.62,3.72,7.81,8.17,7.81,8.17,0,0,7.21-3.41,8.09-8.21l12.78,6.28,1.53,3.37Z"/>
    <g class="cls-6">
      <g>
        <path class="cls-11" d="M14.11,46.5l6.81-3.04,10.21,13.98,10.33-13.94,5.95,2.83v20.03H14.11s0-19.86,0-19.86Z"/>
        <g class="cls-10">
          <path class="cls-12" d="M37.79,42.88h.73v21.38h-.73v-21.38Zm-14.77,0h.73v21.38h-.73v-21.38h0Zm-2.98,0h.73v21.38h-.73v-21.38Zm-2.94,0h.73v21.38h-.73v-21.38h0Zm-2.98,0h.73v21.38h-.73v-21.38Zm20.71,0h.73v21.38h-.73v-21.38Zm-2.98,0h.73v21.38h-.73s0-21.38,0-21.38Zm-2.94,0h.73v21.38h-.73v-21.38Zm-2.98,0h.73v21.38h-.73v-21.38Zm20.78,0h.73v21.38h-.73v-21.38Zm-2.98,0h.73v21.38h-.73v-21.38Zm-2.94,0h.73v21.38h-.73v-21.38Z"/>
        </g>
      </g>
    </g>
    <path class="cls-11" d="M23.26,41.27l7.8,9.32-6.31,3.55-4.82-10.59,3.33-2.28Zm15.89,.18l-8.09,9.14,6.52,3.55,4.78-10.72s-3.21-1.97-3.21-1.97Z"/>
  </g>
  <path class="cls-3" d="M27.75,35.72c.26,.27,.73,.69,1.46,.98,1.35,.53,3.22,.47,4.54-.56,.78-.6,1.13-1.35,1.29-1.84"/>
  <path class="cls-3" d="M29.15,38.55c.12,.09,.34,.24,.71,.37,.69,.23,1.71,.3,2.53,.05,.48-.14,.74-.35,.87-.49"/>
  <path class="cls-2" d="M27.19,22.69c-.13-.11-.37-.29-.76-.42-.72-.23-1.75-.21-2.53,.21-.45,.25-.68,.55-.79,.76"/>
  <path class="cls-2" d="M39.04,23.21c-.1-.14-.29-.38-.63-.59-.64-.4-1.64-.64-2.5-.43-.5,.13-.8,.37-.96,.54"/>
  <path class="cls-5" d="M30.9,29.67c-.51,2.15-.39,3.76,.3,4.07,.16,.07,.49,.13,1.1-.25"/>
  <path class="cls-4" d="M43.63,25.21c1.02,1.54,1.01,3.25,.46,3.82-.5,.52-1.41,.07-1.54,0"/>
  <path class="cls-4" d="M17.91,26.6c.1,1.72,.97,3.19,1.62,3.48,.59,.26,.96-.48,1.01-.59"/>
  <ellipse class="cls-8" cx="25.58" cy="26.29" rx=".79" ry="1.73"/>
  <ellipse class="cls-8" cx="36.99" cy="26.29" rx=".79" ry="1.73"/>
  <ellipse class="cls-7" cx="23.24" cy="30.97" rx="2.34" ry=".99"/>
  <ellipse class="cls-7" cx="39.28" cy="30.97" rx="2.57" ry="1.09"/>
</svg>